<svg xmlns="http://www.w3.org/2000/svg" viewBox="0 0 32 32">
  <rect width="32" height="32" rx="8" fill="#FAF8F3"/>
  <path d="M16 25.5C16 25.5 6 19 6 12.4C6 9.1 8.5 6.6 11.6 6.6C13.6 6.6 15.2 7.7 16 9.2C16.8 7.7 18.4 6.6 20.4 6.6C23.5 6.6 26 9.1 26 12.4C26 19 16 25.5 16 25.5Z" fill="none" stroke="#0F3328" stroke-width="2" stroke-linejoin="round"/>
  <path d="M16 21C16 17.7 17.6 15.2 20.4 14.3" fill="none" stroke="#0F3328" stroke-width="1.8" stroke-linecap="round"/>
  <path d="M21 14C19.3 14.6 18 16 17.5 17.8C19.3 17.2 20.6 15.8 21 14Z" fill="#0F3328"/>
</svg>
